<?xml version="1.0" encoding="utf-8" ?>
<svg xmlns="http://www.w3.org/2000/svg" xmlns:xlink="http://www.w3.org/1999/xlink" width="49" height="50">
	<defs>
		<clipPath id="clip_0">
			<rect x="-1038.0109" y="-1625.7764" width="1411.2" height="3251.6399" clip-rule="evenodd"/>
		</clipPath>
	</defs>
	<g clip-path="url(#clip_0)">
		<path fill="rgb(255,255,255)" stroke="none" transform="matrix(0.98 0 0 0.98 0.313477 0.0587769)" d="M37.315 35.6964L33.3887 35.6964L33.3887 34.0085C37.2767 32.0915 39.564 28.5685 39.564 24.4021L39.564 18.3087C39.564 12.032 34.4965 6.9251 28.2688 6.9251C27.5845 6.9251 26.9074 6.99502 26.2422 7.11559C23.8113 2.86685 19.2627 0 14.0564 0C6.30698 0 0 6.35631 0 14.1664C0 21.9764 6.30698 28.3327 14.0564 28.3327C15.2623 28.3327 16.4323 28.1784 17.5496 27.889C18.4588 30.5077 20.4159 32.6586 23.1483 34.0041L23.1483 35.6921L19.222 35.6921C13.9104 35.6921 8.19442 39.6491 8.19442 48.3368C8.19442 49.1904 8.87871 49.88 9.72569 49.88L46.8087 49.88C47.6557 49.88 48.3399 49.1904 48.3399 48.3368C48.3423 39.654 42.6265 35.6965 37.315 35.6964ZM3.06486 14.1682C3.06486 8.0579 7.99842 3.08828 14.0587 3.08828C20.1216 3.08828 25.0526 8.06043 25.0526 14.1682C25.0526 20.2784 20.1191 25.248 14.0587 25.248C7.99591 25.248 3.06486 20.2759 3.06486 14.1682ZM19.2246 38.7804C14.3602 38.7804 11.8503 42.6938 11.3527 46.7954L45.189 46.795C44.6886 42.6935 42.1788 38.78 37.317 38.78L31.8595 38.78C31.0125 38.78 30.3282 38.0903 30.3282 37.2367L30.3282 33.0025C30.3282 32.3707 30.711 31.8016 31.2948 31.5677C34.6038 30.2466 36.5035 27.6351 36.5035 24.4015L36.5035 18.3081C36.5035 13.7317 32.8096 10.011 28.2708 10.011C28.0148 10.011 27.7612 10.0255 27.5099 10.0496C27.9047 11.3517 28.1177 12.7334 28.1177 14.1657C28.1177 19.6683 24.9837 24.4475 20.4234 26.7913C21.1292 28.9157 22.7992 30.5892 25.2468 31.5658C25.8306 31.7997 26.2134 32.3687 26.2134 33.0005L26.2134 37.2372C26.2134 38.0908 25.5292 38.7804 24.6822 38.7804L19.2246 38.7804Z" fill-rule="evenodd"/>
	</g>
</svg>
