<?xml version="1.0" encoding="utf-8" ?>
<svg xmlns="http://www.w3.org/2000/svg" xmlns:xlink="http://www.w3.org/1999/xlink" width="9" height="6">
	<path fill="rgb(204,145,49)" stroke="none" transform="matrix(-0.622254 0.622254 -0.622254 -0.622254 7.80896 1.25543)" d="M1 0L5 0Q5.10272 0 5.20144 0.0186045Q5.30016 0.037209 5.39167 0.0738122Q5.48317 0.110415 5.56449 0.163826Q5.64581 0.217236 5.71429 0.285714Q5.78276 0.354193 5.83617 0.43551Q5.88959 0.516827 5.92619 0.608335Q5.96279 0.699843 5.9814 0.798563Q6 0.897283 6 1L6 1Q6 1.10272 5.9814 1.20144Q5.96279 1.30016 5.92619 1.39167Q5.88959 1.48317 5.83617 1.56449Q5.78276 1.64581 5.71429 1.71429Q5.64581 1.78276 5.56449 1.83617Q5.48317 1.88958 5.39167 1.92619Q5.30016 1.96279 5.20144 1.9814Q5.10272 2 5 2L1 2Q0.897283 2 0.798563 1.9814Q0.699843 1.96279 0.608335 1.92619Q0.516827 1.88958 0.43551 1.83617Q0.354193 1.78276 0.285714 1.71429Q0.217236 1.64581 0.163826 1.56449Q0.110415 1.48317 0.0738122 1.39167Q0.037209 1.30016 0.0186045 1.20144Q0 1.10272 0 1L0 1Q0 0.897283 0.0186045 0.798563Q0.037209 0.699843 0.0738122 0.608335Q0.110415 0.516827 0.163826 0.43551Q0.217236 0.354193 0.285714 0.285714Q0.354193 0.217236 0.43551 0.163826Q0.516827 0.110415 0.608335 0.0738122Q0.699843 0.037209 0.798563 0.0186045Q0.897283 0 1 0Z"/>
	<path fill="rgb(204,145,49)" stroke="none" transform="matrix(0.622254 0.622254 -0.622254 0.622254 1.43555 0.0109863)" d="M1 0L5 0Q5.10272 0 5.20144 0.0186045Q5.30016 0.037209 5.39167 0.0738122Q5.48317 0.110415 5.56449 0.163826Q5.64581 0.217236 5.71429 0.285714Q5.78276 0.354193 5.83617 0.43551Q5.88959 0.516827 5.92619 0.608335Q5.96279 0.699843 5.9814 0.798563Q6 0.897283 6 1L6 1Q6 1.10272 5.9814 1.20144Q5.96279 1.30016 5.92619 1.39167Q5.88959 1.48317 5.83617 1.56449Q5.78276 1.64581 5.71429 1.71429Q5.64581 1.78276 5.56449 1.83617Q5.48317 1.88958 5.39167 1.92619Q5.30016 1.96279 5.20144 1.9814Q5.10272 2 5 2L1 2Q0.897283 2 0.798563 1.9814Q0.699843 1.96279 0.608335 1.92619Q0.516827 1.88958 0.43551 1.83617Q0.354193 1.78276 0.285714 1.71429Q0.217236 1.64581 0.163826 1.56449Q0.110415 1.48317 0.0738122 1.39167Q0.037209 1.30016 0.0186045 1.20144Q0 1.10272 0 1L0 1Q0 0.897283 0.0186045 0.798563Q0.037209 0.699843 0.0738122 0.608335Q0.110415 0.516827 0.163826 0.43551Q0.217236 0.354193 0.285714 0.285714Q0.354193 0.217236 0.43551 0.163826Q0.516827 0.110415 0.608335 0.0738122Q0.699843 0.037209 0.798563 0.0186045Q0.897283 0 1 0Z"/>
</svg>
