<?xml version="1.0" encoding="utf-8" ?>
<svg xmlns="http://www.w3.org/2000/svg" xmlns:xlink="http://www.w3.org/1999/xlink" width="514" height="617">
	<defs>
		<clipPath id="clip_0">
			<rect x="-758" y="-1063" width="1440" height="3318" clip-rule="evenodd"/>
		</clipPath>
	</defs>
	<g clip-path="url(#clip_0)">
		<path fill="rgb(255,255,255)" fill-opacity="0.48235294" stroke="none" transform="matrix(0.920505 0.390731 -0.390731 0.920505 205.46 -1)" d="M257.977 117.064C278.857 131.143 296.665 149.533 309.577 171.61L309.582 171.616C324.942 196.732 332.91 226.16 333.03 256.833L333.03 362.884C333.03 392.311 325.038 421.116 309.678 446.856C288.769 482.417 254.98 508.78 215.668 521.039C199.683 525.948 183.099 528.39 166.515 528.39C149.931 528.39 133.347 525.948 117.363 521.039C78.0246 508.78 44.2323 482.414 23.3523 446.856C7.99219 421.115 0 391.687 0 362.259L0 256.207C0 226.155 7.99219 197.35 23.3523 171.61C36.2401 149.557 54.0726 130.545 74.9526 117.064L45.4562 58.2086C43.0082 52.0788 43.6082 45.3506 48.5282 40.442C53.4238 35.5334 60.1921 34.3122 66.3362 37.3771L124.08 66.1822L152.953 8.57191C155.4 3.0649 160.945 0 166.465 0C171.984 0 177.529 3.66329 179.977 8.57191L208.849 66.1822L266.593 37.3771C272.737 34.3122 279.481 35.5334 284.401 40.442C289.321 45.3262 290.545 52.0788 287.473 58.2086L257.977 117.064ZM166.416 50.2417L186.696 91.3064C173.184 89.4627 159.048 89.4627 145.536 91.3064L166.416 50.2417ZM117.262 97.4362L93.9095 85.7994L102.526 102.944C107.421 100.501 112.342 99.28 117.262 97.4362ZM216.192 97.4366C221.088 99.2564 226.008 101.1 230.928 102.944L239.545 85.7998L216.192 97.4366ZM166.414 134.218L153.501 121.336C162.093 120.713 171.309 120.713 179.926 121.336L166.414 134.218ZM117.861 129.307L144.885 156.268L90.2132 210.814L56.4209 177.1C71.781 155.669 93.2852 139.124 117.861 129.306L117.861 129.307ZM277.009 177.127L243.216 210.841L188.544 156.295L215.568 129.334C239.52 139.127 261.024 155.673 277.009 177.127ZM111.741 232.918L166.414 287.463L221.086 232.918L166.414 178.372L111.741 232.918ZM30.6201 269.69L68.1087 232.289L40.4605 204.705C33.6922 221.25 30.6201 238.419 30.6201 255.587L30.6201 269.69ZM302.185 269.698L302.185 255.594C302.185 238.426 298.513 221.258 292.345 204.712L264.696 232.296L302.185 269.698ZM144.285 308.914L89.6129 254.368L34.9406 308.914L89.6129 363.459L144.285 308.914ZM243.214 363.46L188.542 308.915L243.214 254.37L297.887 308.915L243.214 363.46ZM166.414 330.366L221.086 384.911L166.414 439.456L111.741 384.911L166.414 330.366ZM40.4605 412.493C33.6922 396.545 30.6201 379.402 30.6201 361.61L30.6201 347.507L68.1087 384.909L40.4605 412.493ZM302.185 362.233L302.185 348.13L264.696 385.531L292.345 413.115C299.113 396.57 302.185 379.402 302.185 362.233ZM89.6111 406.993L55.8188 440.707C71.7792 462.161 93.2834 479.329 117.259 488.5L144.283 461.538L89.6111 406.993ZM187.92 461.563L214.944 488.524L214.944 488.525C239.52 479.33 261.024 462.162 276.384 440.731L242.592 407.018L187.92 461.563ZM152.901 496.498L166.413 483.017L179.925 496.498C170.709 497.719 162.117 497.719 152.901 496.498Z" fill-rule="evenodd"/>
	</g>
</svg>
