<?xml version="1.0" encoding="utf-8" ?>
<svg xmlns="http://www.w3.org/2000/svg" xmlns:xlink="http://www.w3.org/1999/xlink" width="45" height="45">
	<defs>
		<clipPath id="clip_0">
			<rect x="-821" y="-1663" width="1440" height="3318" clip-rule="evenodd"/>
		</clipPath>
	</defs>
	<g clip-path="url(#clip_0)">
		<path fill="rgb(255,255,255)" stroke="none" transform="translate(-1.09406 -0.594055)" d="M0 22.095C0 34.2785 9.91134 44.1898 22.0948 44.19C34.2785 44.19 44.19 34.2785 44.19 22.095L44.19 21.1749L37.7456 21.1749L37.7456 22.095C37.7456 30.7253 30.7252 37.7456 22.0949 37.7456C13.4645 37.7456 6.44413 30.7253 6.44413 22.095C6.44413 13.4646 13.4645 6.44433 22.0949 6.44433C26.1867 6.44433 30.0373 8.00398 32.9696 10.8391L28.1577 15.6509L41.4281 15.649L41.4281 2.37874L37.5271 6.2816C33.3773 2.22913 27.9076 0 22.0951 0C9.9115 0 0 9.91144 0 22.095ZM1.83983 22.095C1.83983 10.9264 10.9269 1.83981 22.0951 1.83981L22.0955 1.84014C27.5058 1.84014 32.5924 3.94753 36.4 7.75503L37.4977 8.91637L39.5885 6.82559L39.5885 13.8086L32.6055 13.8086L35.5734 10.8407L34.4644 9.72616C31.1601 6.42177 26.767 4.60216 22.0955 4.60216C12.4497 4.60216 4.60253 12.4493 4.60253 22.095C4.60253 31.7407 12.4497 39.5878 22.0955 39.5878C31.433 39.5878 39.0834 32.2348 39.564 23.0171L42.3299 23.0171C41.8454 33.7591 32.955 42.3502 22.0951 42.3502C10.9264 42.3502 1.83983 33.2636 1.83983 22.095Z" fill-rule="evenodd"/>
	</g>
</svg>
