<?xml version="1.0" encoding="utf-8" ?>
<svg xmlns="http://www.w3.org/2000/svg" xmlns:xlink="http://www.w3.org/1999/xlink" width="21" height="17">
	<defs>
		<clipPath id="clip_0">
			<rect x="-245.41498" y="-1301.8442" width="1425.6001" height="3284.8198" clip-rule="evenodd"/>
		</clipPath>
	</defs>
	<g clip-path="url(#clip_0)">
		<path fill="rgb(204,145,49)" stroke="none" transform="matrix(0.99 0 0 0.99 0.105011 0.0057373)" d="M8.07311 9.41934L17.2997 0.191288C17.5547 -0.0637626 17.9763 -0.0637626 18.2313 0.191288L20.8087 2.76888C21.0638 3.02393 21.0638 3.44549 20.8087 3.70382C16.7191 7.79369 12.6268 11.8838 8.53718 15.9762L8.51422 15.9991L8.48797 16.0221L8.47321 16.0311L8.42073 16.0656L8.40597 16.0746L8.37645 16.0861L8.36497 16.0951L8.30592 16.1181L8.29116 16.1213L8.2764 16.1271L8.17307 16.15L8.02299 16.15C8.00823 16.15 7.99101 16.1468 7.97625 16.1443L7.95903 16.141L7.91474 16.1312L7.88604 16.1222L7.86882 16.1164L7.85406 16.1131L7.8393 16.1074C7.8188 16.0984 7.79829 16.0902 7.77861 16.0787L7.76385 16.073L7.73515 16.0557C7.69414 16.0295 7.65396 15.9975 7.6187 15.9631C-3.21603 5.12992 11.0294 19.3706 0.191275 8.53514C-0.0637584 8.28009 -0.0637584 7.85853 0.191275 7.60348L2.76869 5.02589C3.02373 4.77084 3.44526 4.77084 3.70357 5.02589L8.07281 9.4202L8.07311 9.41934Z"/>
	</g>
</svg>
