<?xml version="1.0" encoding="utf-8" ?>
<svg xmlns="http://www.w3.org/2000/svg" xmlns:xlink="http://www.w3.org/1999/xlink" width="40" height="40">
	<defs>
		<clipPath id="clip_0">
			<rect x="-561.63092" y="-1627.8555" width="1411.2" height="3251.6399" clip-rule="evenodd"/>
		</clipPath>
	</defs>
	<g clip-path="url(#clip_0)">
		<path fill="rgb(255,255,255)" stroke="none" transform="matrix(0.98 0 0 0.98 -0.060791 -0.0755005)" d="M16.813 39.9501C15.129 39.9501 13.4429 39.3168 12.1805 38.0544L1.91601 27.7911C-0.715855 25.1594 -0.611002 20.8438 2.07433 18.1587L18.4434 1.78869C19.5496 0.684653 21.0239 0.0534543 22.5495 0L34.9729 0C36.2888 0 37.5513 0.526332 38.4458 1.4762C39.3936 2.42402 39.92 3.68638 39.92 5.00221L39.92 17.371C39.8686 18.95 39.2374 20.4221 38.1312 21.5282L21.76 37.8982C20.3927 39.2654 18.6018 39.9501 16.813 39.9501ZM21.024 4.42019L4.65286 20.7902L4.65292 20.7894C3.39043 22.0518 3.337 24.0009 4.49665 25.2098L14.7609 35.4754C15.9185 36.6329 17.9191 36.5794 19.1815 35.3171L35.5506 18.9455C35.9721 18.524 36.2353 17.9463 36.2353 17.3665L36.2353 5.05138C36.2353 4.68337 36.1305 4.36673 35.8673 4.10356C35.6041 3.89385 35.2874 3.73554 34.9194 3.73554L22.5497 3.73554C22.0233 3.73554 21.4456 3.99872 21.024 4.42019Z" fill-rule="evenodd"/>
	</g>
</svg>
