<?xml version="1.0" encoding="utf-8" ?>
<svg xmlns="http://www.w3.org/2000/svg" xmlns:xlink="http://www.w3.org/1999/xlink" width="45" height="45">
	<defs>
		<clipPath id="clip_0">
			<rect x="-325" y="-1657" width="1440" height="3318" clip-rule="evenodd"/>
		</clipPath>
	</defs>
	<g clip-path="url(#clip_0)">
		<path fill="rgb(255,255,255)" stroke="none" transform="translate(-1 -1)" d="M0 22.0799C0 9.9042 9.90427 0 22.08 0L22.08 5.97996e-05C34.2557 5.97996e-05 44.16 9.90426 44.16 22.0799C44.16 25.2263 43.5113 28.2649 42.232 31.1129C41.8169 32.0419 40.7279 32.4569 39.8008 32.0383C38.8736 31.6232 38.4585 30.5343 38.8754 29.6071C39.9391 27.2353 40.48 24.7018 40.48 22.0802C40.48 11.9331 32.2253 3.68027 22.08 3.68027C11.9328 3.68027 3.67996 11.9331 3.67996 22.0802C3.67996 24.7035 4.21903 27.2371 5.28458 29.6089C5.69968 30.5361 5.28637 31.625 4.35919 32.0401C4.11484 32.1515 3.85788 32.2036 3.60631 32.2036C2.90375 32.2036 2.23172 31.7975 1.92625 31.1165C0.646853 28.2664 0 25.228 0 22.0799ZM32.2 19.7799C32.2 22.4143 31.5603 25.1113 30.3384 27.3574L30.3385 27.3574C34.8362 29.0589 38.6401 32.0345 38.6401 35.8798C38.6401 36.347 38.4641 36.7962 38.146 37.1358C33.9195 41.6641 28.2146 44.16 22.08 44.16C15.9455 44.16 10.2403 41.6639 6.01405 37.1358C5.69601 36.7944 5.51991 36.347 5.51991 35.8798C5.51991 32.0347 9.32219 29.059 13.8215 27.3574C12.5978 25.1112 11.96 22.4141 11.96 19.7799C11.96 13.3832 16.215 8.73994 22.08 8.73994C27.9432 8.73994 32.2 13.3832 32.2 19.7799ZM28.52 19.7817C28.52 16.2365 26.5039 12.4218 22.08 12.4218C17.6543 12.4218 15.64 16.2365 15.64 19.7817C15.64 23.602 17.6382 28.9817 22.08 28.9817C26.5219 28.9817 28.52 23.6019 28.52 19.7817ZM22.08 40.4797C17.2592 40.4797 12.7544 38.6236 9.30075 35.2349C9.86319 33.3949 12.7292 31.5081 16.1971 30.4086C17.755 31.7957 19.7171 32.6618 22.08 32.6618C24.4411 32.6618 26.4051 31.7957 27.9611 30.4086C31.4309 31.51 34.2953 33.395 34.8593 35.2349C31.4057 38.6237 26.9008 40.4797 22.08 40.4797Z" fill-rule="evenodd"/>
	</g>
</svg>
