<?xml version="1.0" encoding="utf-8" ?>
<svg xmlns="http://www.w3.org/2000/svg" xmlns:xlink="http://www.w3.org/1999/xlink" width="10" height="15">
	<defs>
		<clipPath id="clip_0">
			<rect x="-564.28003" y="-3000.9438" width="1382.4" height="3185.28" clip-rule="evenodd"/>
		</clipPath>
	</defs>
	<g clip-path="url(#clip_0)">
		<path fill="rgb(195,121,0)" fill-opacity="0.78431374" stroke="none" transform="matrix(0.96 0 0 0.96 0.200012 0.0161133)" d="M8.18182 0L1.81818 0C0.814091 0 0 0.814348 0 1.81876L0 12.7313C0 13.2135 0.191761 13.6762 0.532682 14.0172C0.873602 14.3582 1.33614 14.55 1.81818 14.55L8.18182 14.55C8.66389 14.55 9.12641 14.3582 9.46732 14.0172C9.80823 13.6762 10 13.2135 10 12.7313L10 1.81876C10 1.33654 9.80824 0.873867 9.46732 0.53285C9.1264 0.191833 8.66386 0 8.18182 0ZM1.81818 10.2305L8.18182 10.2305L8.18182 1.81876L1.81818 1.81876L1.81818 10.2305ZM5 13.186C4.63245 13.186 4.30043 12.9648 4.16016 12.6247C4.019 12.2846 4.09713 11.8938 4.35725 11.6336C4.61737 11.3734 5.008 11.2953 5.34802 11.4365C5.68804 11.5768 5.90911 11.9089 5.90911 12.2766C5.90911 12.5181 5.81323 12.749 5.64277 12.9195C5.47231 13.09 5.2415 13.186 5.00002 13.186L5 13.186Z" fill-rule="evenodd"/>
	</g>
</svg>
