<?xml version="1.0" encoding="utf-8" ?>
<svg xmlns="http://www.w3.org/2000/svg" xmlns:xlink="http://www.w3.org/1999/xlink" width="20" height="20">
	<defs>
		<clipPath id="clip_0">
			<rect x="-988.41998" y="-2963.4697" width="1425.6" height="3284.8198" clip-rule="evenodd"/>
		</clipPath>
	</defs>
	<g clip-path="url(#clip_0)">
		<path fill="rgb(204,145,49)" stroke="none" transform="matrix(0.99 0 0 0.99 -0.00402832 -0.00390625)" d="M0 9.60003C0 4.29801 4.298 0 9.59999 0C14.902 0 19.2 4.29801 19.2 9.60003C19.2 14.902 14.902 19.2001 9.59999 19.2001C4.298 19.2001 0 14.902 0 9.60003ZM13.51 8.10802C13.51 8.02802 13.509 7.94602 13.505 7.86402C13.874 7.59802 14.195 7.26402 14.448 6.88502C14.109 7.03602 13.745 7.13702 13.362 7.18402C13.753 6.94902 14.052 6.57802 14.193 6.13702C13.828 6.35402 13.424 6.51002 12.993 6.59602C12.648 6.22802 12.156 5.99802 11.613 5.99802C10.568 5.99802 9.72199 6.84602 9.72199 7.88902C9.72199 8.03802 9.73799 8.18202 9.77099 8.32102C8.19899 8.24002 6.807 7.48802 5.874 6.34402C5.711 6.62302 5.618 6.94902 5.618 7.29502C5.618 7.95202 5.951 8.53002 6.459 8.87002C6.149 8.86002 5.857 8.77402 5.602 8.63302L5.602 8.65602C5.602 9.57203 6.254 10.336 7.119 10.51C6.961 10.553 6.793 10.576 6.621 10.576C6.499 10.576 6.381 10.564 6.266 10.543C6.507 11.293 7.205 11.839 8.03199 11.855C7.385 12.363 6.57 12.664 5.684 12.664C5.531 12.664 5.38 12.657 5.233 12.639C6.069 13.177 7.063 13.489 8.13099 13.489C11.609 13.489 13.51 10.608 13.51 8.10802Z" fill-rule="evenodd"/>
	</g>
</svg>
