<?xml version="1.0" encoding="utf-8" ?>
<svg xmlns="http://www.w3.org/2000/svg" xmlns:xlink="http://www.w3.org/1999/xlink" width="20" height="20">
	<defs>
		<clipPath id="clip_0">
			<rect x="-916.14996" y="-2963.4697" width="1425.6" height="3284.8198" clip-rule="evenodd"/>
		</clipPath>
	</defs>
	<g clip-path="url(#clip_0)">
		<path fill="rgb(204,145,49)" stroke="none" transform="matrix(0.99 0 0 0.99 -0.00396729 -0.00390625)" d="M0 9.60003C0 4.29801 4.298 0 9.59999 0C14.902 0 19.2 4.29801 19.2 9.60003C19.2 14.902 14.902 19.2001 9.59999 19.2001C4.298 19.2001 0 14.902 0 9.60003ZM10.431 6.63402L11.874 6.63402L11.874 5.05301L10.431 5.05301C9.23699 5.05301 8.36699 6.07202 8.36699 7.32602L8.36699 8.20002L6.822 8.20002L6.822 9.68603L8.36699 9.68603L8.36699 14.147L10.07 14.147L10.07 9.68603L11.602 9.68603L11.875 8.20002L10.07 8.20002L10.07 7.15802C10.07 6.85902 10.26 6.63402 10.431 6.63402Z" fill-rule="evenodd"/>
	</g>
</svg>
