<?xml version="1.0" encoding="utf-8" ?>
<svg xmlns="http://www.w3.org/2000/svg" xmlns:xlink="http://www.w3.org/1999/xlink" width="20" height="20">
	<defs>
		<clipPath id="clip_0">
			<rect x="-939.90997" y="-2963.4697" width="1425.6" height="3284.8198" clip-rule="evenodd"/>
		</clipPath>
	</defs>
	<g clip-path="url(#clip_0)">
		<path fill="rgb(204,145,49)" stroke="none" transform="matrix(0.99 0 0 0.99 -0.00396729 -0.00390625)" d="M0 9.60003C0 4.29801 4.298 0 9.59999 0C14.902 0 19.2 4.29801 19.2 9.60003C19.2 14.902 14.902 19.2001 9.59999 19.2001C4.298 19.2001 0 14.902 0 9.60003ZM6.266 6.55502C5.652 6.55502 5.255 6.12002 5.255 5.58202C5.255 5.03301 5.664 4.61101 6.291 4.61101C6.918 4.61101 7.302 5.03301 7.314 5.58202C7.314 6.12002 6.918 6.55502 6.266 6.55502ZM12.406 13.579L14.35 13.579L14.35 9.88003C14.35 8.03802 13.391 7.18102 12.112 7.18102C11.063 7.18102 10.436 7.78302 10.18 8.19102L10.141 8.19102L10.052 7.32202L8.363 7.32202C8.389 7.88402 8.41399 8.53702 8.41399 9.31803L8.41399 13.578L10.359 13.578L10.359 9.97103C10.359 9.79203 10.372 9.61203 10.424 9.48503C10.565 9.12802 10.884 8.75702 11.421 8.75702C12.124 8.75702 12.406 9.30503 12.406 10.112L12.406 13.579ZM5.306 13.579L7.25 13.579L7.25 7.32302L5.306 7.32302L5.306 13.579Z" fill-rule="evenodd"/>
	</g>
</svg>
