<?xml version="1.0" encoding="UTF-8" standalone="no"?>
<svg xmlns:rdf="http://www.w3.org/1999/02/22-rdf-syntax-ns#" xmlns="http://www.w3.org/2000/svg" height="44.188" width="44.188" version="1.1" xmlns:cc="http://creativecommons.org/ns#" xmlns:dc="http://purl.org/dc/elements/1.1/">
 <defs>
  <clipPath id="clip_0">
   <rect height="3318" width="1440" clip-rule="evenodd" y="-1662" x="-820"/>
  </clipPath>
  <clipPath id="clip_1">
   <rect height="3318" width="1440" clip-rule="evenodd" y="-1662" x="-820"/>
  </clipPath>
  <clipPath id="clip_2">
   <rect height="3318" width="1440" clip-rule="evenodd" y="-1662" x="-820"/>
  </clipPath>
 </defs>
 <metadata>
  <rdf:RDF>
   <cc:Work rdf:about="">
    <dc:format>image/svg+xml</dc:format>
    <dc:type rdf:resource="http://purl.org/dc/dcmitype/StillImage"/>
    <dc:title/>
   </cc:Work>
  </rdf:RDF>
 </metadata>
 <g transform="translate(.094055 -.40594)" clip-path="url(#clip_0)">
  <path d="m0 22.094c0 12.183 9.9108 22.094 22.094 22.094s22.094-9.911 22.094-22.094v-0.9201h-6.4441v0.9201c0 8.6299-7.02 15.65-15.65 15.65s-15.65-7.02-15.65-15.65c0-8.6299 7.02-15.65 15.65-15.65 4.0916 0 7.942 1.5596 10.874 4.3946l-4.8117 4.8116 13.27-0.0018v-13.27l-3.9008 3.9027c-4.15-4.0525-9.62-6.2815-15.432-6.2815-12.183 0-22.094 9.911-22.094 22.094zm1.8397 0c0-11.168 9.0863-20.254 20.254-20.254l0.0004 0.00033c5.41 0 10.496 2.1073 14.304 5.9146l1.0977 1.1613 2.0906-2.0907v6.9827h-6.9826l2.9677-2.9677-1.1089-1.1146c-3.304-3.3044-7.696-5.1239-12.368-5.1239-9.6453 0-17.492 7.8467-17.492 17.492 0 9.6454 7.8468 17.492 17.492 17.492 9.337 0 16.987-7.3527 17.468-16.57h2.7658c-0.485 10.742-9.375 19.332-20.234 19.332-11.168 0-20.254-9.086-20.254-20.254z" fill-rule="evenodd" transform="translate(-.094055 .40594)" fill="#fff"/>
 </g>
 <g transform="translate(.094055 -.40594)" clip-path="url(#clip_1)">
  <path fill="#fff" transform="translate(14.636 9.6119)" d="m8.2843 13.808h-8.2843v-1.8401h6.4441v-11.968h1.8401l0.0001 13.808z"/>
 </g>
 <g transform="translate(.094055 -.40594)" clip-path="url(#clip_2)">
  <path fill="#fff" transform="translate(18.318 29.864)" d="m0 0h7.36v1.84h-7.36v-1.84z"/>
 </g>
</svg>
