<?xml version="1.0" encoding="UTF-8" standalone="no"?>
<svg xmlns:rdf="http://www.w3.org/1999/02/22-rdf-syntax-ns#" xmlns="http://www.w3.org/2000/svg" height="48.881" width="47.373" version="1.1" xmlns:cc="http://creativecommons.org/ns#" xmlns:dc="http://purl.org/dc/elements/1.1/">
 <defs>
  <clipPath id="clip_0">
   <rect height="3251.6" width="1411.2" clip-rule="evenodd" y="-1625.8" x="-1038"/>
  </clipPath>
  <clipPath id="clip_1">
   <rect height="3251.6" width="1411.2" clip-rule="evenodd" y="-1625.8" x="-1038"/>
  </clipPath>
  <clipPath id="clip_2">
   <rect height="3251.6" width="1411.2" clip-rule="evenodd" y="-1625.8" x="-1038"/>
  </clipPath>
 </defs>
 <metadata>
  <rdf:RDF>
   <cc:Work rdf:about="">
    <dc:format>image/svg+xml</dc:format>
    <dc:type rdf:resource="http://purl.org/dc/dcmitype/StillImage"/>
    <dc:title/>
   </cc:Work>
  </rdf:RDF>
 </metadata>
 <g transform="translate(-.31372 -.059387)" clip-path="url(#clip_0)">
  <path d="m37.315 35.696h-3.9262v-1.6879c3.8879-1.917 6.1752-5.4398 6.1752-9.6061v-6.0933c0-6.2766-5.0675-11.383-11.295-11.383-0.6843 0-1.3614 0.06993-2.0265 0.19049-2.431-4.2492-6.98-7.116-12.186-7.116-7.7491 0-14.056 6.3562-14.056 14.166 0 7.8099 6.3069 14.166 14.056 14.166 1.2059 0 2.3758-0.1543 3.4931-0.4437 0.9092 2.6187 2.8663 4.7695 5.5986 6.115v1.6879h-3.9262c-5.3116 0-11.027 3.9569-11.027 12.644 0 0.8536 0.68429 1.5432 1.5312 1.5432h37.083c0.8469 0 1.5312-0.6896 1.5312-1.5432 0.0024-8.6826-5.7133-12.64-11.025-12.64zm-34.25-21.528c0-6.1101 4.9335-11.08 10.994-11.08 6.0628 0 10.994 4.972 10.994 11.08 0 6.1102-4.9336 11.08-10.994 11.08-6.0628 0-10.994-4.9721-10.994-11.08zm16.159 24.612c-4.8643 0-7.3742 3.9132-7.8718 8.0148l33.836-0.0004c-0.5004-4.1014-3.0102-8.0149-7.8719-8.0149h-5.4575c-0.8469 0-1.5312-0.6896-1.5312-1.5432v-4.2342c0-0.6317 0.3828-1.2008 0.9666-1.4347 3.3089-1.3211 5.2086-3.9325 5.2086-7.166v-6.0933c0-4.5763-3.6939-8.2969-8.2326-8.2969-0.256 0-0.5096 0.0145-0.7609 0.0386 0.3948 1.3021 0.6078 2.6838 0.6078 4.116 0 5.5025-3.134 10.282-7.6943 12.625 0.7058 2.1244 2.3759 3.7978 4.8235 4.7744 0.5837 0.2339 0.9666 0.8029 0.9666 1.4347v4.2366c0 0.8535-0.6843 1.5432-1.5313 1.5432h-5.4575z" fill-rule="evenodd" transform="matrix(.98 0 0 .98 .31372 .059387)" fill="#fff"/>
 </g>
 <g transform="translate(-.31372 -.059387)" clip-path="url(#clip_1)">
  <path fill="#fff" transform="matrix(.98 0 0 .98 10.203 6.3083)" d="m3.5817 0c-1.5217 0-2.8088 0.43162-3.5817 0.88494l0.72973 2.3558c0.55747-0.3882 1.4164-0.6486 2.1222-0.6486 1.0719 0.0434 1.5648 0.5401 1.5648 1.2973 0 0.7354-0.5575 1.425-1.2441 2.2473-0.9642 1.167-1.3303 2.2907-1.2633 3.3926l0.02154 0.56178h2.8519v-0.38817c-0.0215-0.9717 0.2991-1.8157 1.0935-2.7006 0.8134-0.9067 1.8232-1.9869 1.8232-3.6313-0.0024-1.794-1.2873-3.371-4.1177-3.371z"/>
 </g>
 <g transform="translate(-.31372 -.059387)" clip-path="url(#clip_2)">
  <path fill="#fff" transform="matrix(.98 0 0 .98 11.549 17.193)" d="m1.9093 0c-1.115 0-1.9093 0.82222-1.9093 1.9652 0 1.1236 0.77279 1.9676 1.9093 1.9676 1.158 0 1.9284-0.8416 1.9284-1.9676-0.0216-1.143-0.7728-1.9652-1.9284-1.9652z"/>
 </g>
</svg>
