<?xml version="1.0" encoding="utf-8" ?>
<svg xmlns="http://www.w3.org/2000/svg" xmlns:xlink="http://www.w3.org/1999/xlink" width="28" height="44">
	<defs>
		<clipPath id="clip_0">
			<rect x="-243.60797" y="-2854.1975" width="1425.5999" height="3284.8198" clip-rule="evenodd"/>
		</clipPath>
	</defs>
	<g clip-path="url(#clip_0)">
		<path fill="rgb(66,59,61)" stroke="none" transform="matrix(0.99 0 0 0.99 -0.0679626 -0.0275879)" d="M21.2328 9.63519C22.9513 10.794 24.417 12.3075 25.4797 14.1246L25.4801 14.1251C26.7443 16.1923 27.4001 18.6144 27.41 21.139L27.41 29.8678C27.41 32.2898 26.7522 34.6607 25.488 36.7793C23.7672 39.7061 20.9861 41.876 17.7505 42.885C16.4349 43.289 15.07 43.49 13.705 43.49C12.3401 43.49 10.9751 43.289 9.65952 42.885C6.42181 41.876 3.64054 39.7059 1.92201 36.7793C0.657797 34.6606 0 32.2384 0 29.8163L0 21.0876C0 18.6141 0.657797 16.2432 1.92201 14.1246C2.98274 12.3096 4.45044 10.7447 6.16897 9.63519L3.74127 4.79096C3.53978 4.28643 3.58917 3.73266 3.99411 3.32864C4.39704 2.92463 4.95411 2.82412 5.45979 3.07638L10.2124 5.44724L12.5888 0.705526C12.7902 0.252262 13.2465 0 13.7009 0C14.1552 0 14.6115 0.301513 14.813 0.705526L17.1893 5.44724L21.9419 3.07638C22.4476 2.82412 23.0027 2.92463 23.4076 3.32864C23.8126 3.73065 23.9133 4.28643 23.6605 4.79096L21.2328 9.63519ZM13.6968 4.13523L15.366 7.51513C14.2539 7.36338 13.0904 7.36338 11.9783 7.51513L13.6968 4.13523ZM9.65123 8.01965L7.72921 7.06187L8.43839 8.47294C8.84132 8.27192 9.24628 8.1714 9.65123 8.01965ZM17.7937 8.01968C18.1966 8.16947 18.6016 8.32122 19.0065 8.47297L19.7157 7.0619L17.7937 8.01968ZM13.6967 11.047L12.6339 9.98674C13.3411 9.9355 14.0996 9.9355 14.8088 9.98674L13.6967 11.047ZM9.70058 10.6428L11.9248 12.8619L7.42499 17.3514L4.64372 14.5765C5.90793 12.8126 7.67784 11.4508 9.70058 10.6428L9.70058 10.6428ZM22.7992 14.5787L20.0179 17.3536L15.5181 12.8641L17.7423 10.645C19.7137 11.4511 21.4836 12.8129 22.7992 14.5787ZM22.7992 14.5787L22.7992 14.5787L22.7992 14.5788L22.7992 14.5787ZM9.19687 19.1707L13.6967 23.6601L18.1965 19.1707L13.6967 14.6812L9.19687 19.1707ZM2.52019 22.1973L5.60569 19.1189L3.3301 16.8486C2.77303 18.2104 2.52019 19.6234 2.52019 21.0365L2.52019 22.1973ZM24.8713 22.1979L24.8713 21.0371C24.8713 19.6241 24.5691 18.211 24.0614 16.8492L21.7858 19.1195L24.8713 22.1979ZM11.8754 25.4257L7.37559 20.9362L2.87579 25.4257L7.37559 29.9151L11.8754 25.4257ZM20.0177 29.9152L15.5179 25.4258L20.0177 20.9363L24.5175 25.4258L20.0177 29.9152ZM13.6967 27.1913L18.1965 31.6808L13.6967 36.1702L9.19687 31.6808L13.6967 27.1913ZM3.3301 33.9509C2.77303 32.6383 2.52019 31.2273 2.52019 29.763L2.52019 28.6021L5.60569 31.6806L3.3301 33.9509ZM24.8713 29.8142L24.8713 28.6534L21.7858 31.7318L24.0614 34.0022C24.6185 32.6404 24.8713 31.2273 24.8713 29.8142ZM7.37543 33.4982L4.59416 36.2731C5.90778 38.0389 7.67768 39.452 9.65102 40.2068L11.8752 37.9877L7.37543 33.4982ZM15.4667 37.9897L17.6909 40.2088C19.7137 39.4521 21.4836 38.039 22.7478 36.2752L19.9665 33.5003L15.4667 37.9897ZM12.5845 40.8651L13.6966 39.7556L14.8087 40.8651C14.0502 40.9656 13.343 40.9656 12.5845 40.8651Z" fill-rule="evenodd"/>
	</g>
</svg>
