<?xml version="1.0" encoding="UTF-8" standalone="no"?>
<svg xmlns:rdf="http://www.w3.org/1999/02/22-rdf-syntax-ns#" xmlns="http://www.w3.org/2000/svg" height="39.15" width="39.118" version="1.1" xmlns:cc="http://creativecommons.org/ns#" xmlns:dc="http://purl.org/dc/elements/1.1/">
 <defs>
  <clipPath id="clip_0">
   <rect height="3251.6" width="1411.2" clip-rule="evenodd" y="-1627.9" x="-561.63"/>
  </clipPath>
  <clipPath id="clip_1">
   <rect height="3251.6" width="1411.2" clip-rule="evenodd" y="-1627.9" x="-561.63"/>
  </clipPath>
 </defs>
 <metadata>
  <rdf:RDF>
   <cc:Work rdf:about="">
    <dc:format>image/svg+xml</dc:format>
    <dc:type rdf:resource="http://purl.org/dc/dcmitype/StillImage"/>
    <dc:title/>
   </cc:Work>
  </rdf:RDF>
 </metadata>
 <g transform="translate(.058716 .074890)" clip-path="url(#clip_0)">
  <path d="m16.811 39.949c-1.6838 0-3.3697-0.6333-4.632-1.8956l-10.263-10.263c-2.6316-2.6316-2.5267-6.947 0.1583-9.6321l16.368-16.369c1.106-1.1044 2.58-1.7355 4.105-1.789h12.422c1.3158 0 2.5781 0.52632 3.4724 1.4762 0.9478 0.94779 1.4742 2.2101 1.4742 3.5259v12.368c-0.0514 1.5789-0.6826 3.0509-1.7887 4.157l-16.369 16.37c-1.3671 1.3672-3.1578 2.0518-4.9465 2.0518zm4.211-35.529-16.37 16.37l0.00005-0.0007c-1.2619 1.262-1.3154 3.211-0.1558 4.42l10.263 10.265c1.1575 1.1574 3.1579 1.104 4.4202-0.1583l16.368-16.371c0.4215-0.4215 0.6846-0.9991 0.6846-1.5789v-12.315c0-0.368-0.1048-0.68463-0.368-0.94779-0.2631-0.2097-0.5797-0.36801-0.9478-0.36801h-12.368c-0.5263 0-1.104 0.26317-1.5254 0.68463z" fill-rule="evenodd" transform="matrix(.98 0 0 .98 -.058716 -.074890)" fill="#fff"/>
 </g>
 <g transform="translate(.058716 .074890)" clip-path="url(#clip_1)">
  <path d="m10.354 10.352c-1.1594 1.208-2.738 1.788-4.2633 1.788h-0.0001c-1.5252 0-3.1039-0.5795-4.3146-1.788-2.368-2.3675-2.368-6.2088 0-8.5763 2.368-2.3676 6.21-2.3676 8.578 0s2.368 6.2088 0 8.5763zm-4.2632-6.6299c-0.63105 0-1.2107 0.21169-1.6835 0.68439-0.89416 0.94739-0.89416 2.4189 0 3.3664 0.94553 0.94745 2.4194 0.94745 3.367 0 0.94762-0.94534 0.94762-2.4189 0-3.3664-0.4728-0.4747-1.0525-0.6844-1.6835-0.6844z" fill-rule="evenodd" transform="matrix(.98 0 0 .98 20.556 6.5405)" fill="#fff"/>
 </g>
</svg>
