<?xml version="1.0" encoding="UTF-8" standalone="no"?>
<svg xmlns:rdf="http://www.w3.org/1999/02/22-rdf-syntax-ns#" xmlns="http://www.w3.org/2000/svg" height="114" width="94" version="1.1" xmlns:cc="http://creativecommons.org/ns#" xmlns:dc="http://purl.org/dc/elements/1.1/">
 <defs>
  <clipPath id="clip_0">
   <rect height="284.13" width="1425.6" clip-rule="evenodd" y="28.999" x="6.7139"/>
  </clipPath>
  <clipPath id="clip_0-5">
   <rect height="284.13" width="1425.6" clip-rule="evenodd" y="28.999" x="6.7139"/>
  </clipPath>
 </defs>
 <metadata>
  <rdf:RDF>
   <cc:Work rdf:about="">
    <dc:format>image/svg+xml</dc:format>
    <dc:type rdf:resource="http://purl.org/dc/dcmitype/StillImage"/>
    <dc:title/>
   </cc:Work>
  </rdf:RDF>
 </metadata>
 <g transform="translate(0,-56)" clip-path="url(#clip_0)">
  <path d="m22.638 10.266c1.8323 1.2346 3.395 2.8472 4.528 4.7832l0.0005 0.0005c1.3479 2.2025 2.0471 4.783 2.0576 7.4728v9.2999c0 2.5805-0.7013 5.1064-2.0492 7.3636-1.8348 3.1184-4.7999 5.4302-8.2496 6.5053-1.4027 0.4304-2.858 0.6446-4.3132 0.6446-1.4553 0-2.9106-0.2142-4.3133-0.6446-3.4522-1.076-6.4175-3.388-8.2498-6.506-1.3479-2.258-2.0492-4.838-2.0492-7.419v-9.3c0-2.635 0.70133-5.161 2.0492-7.418 1.131-1.934 2.6958-3.601 4.528-4.783l-2.5883-5.1616c-0.2148-0.5375-0.1622-1.1275 0.2696-1.558 0.4296-0.4304 1.0235-0.5375 1.5626-0.2687l5.0669 2.5259 2.534-5.0519c0.215-0.48293 0.701-0.7517 1.186-0.7517 0.4844 0 0.9709 0.32124 1.1857 0.75169l2.5336 5.052 5.0672-2.526c0.5392-0.26876 1.131-0.16168 1.5627 0.26877 0.4318 0.42831 0.5392 1.0204 0.2696 1.558l-2.589 5.1615zm-8.035-5.8602 1.78 3.601c-1.1857-0.16168-2.4262-0.16168-3.6119 0l1.832-3.601zm-4.313 4.1386-2.0492-1.0205 0.7561 1.5034c0.4296-0.2142 0.8613-0.3213 1.2931-0.4829zm8.6813 0.00003c0.4296 0.15959 0.8614 0.32127 1.2931 0.48295l0.7561-1.5034-2.0492 1.0204zm-4.3681 3.2254-1.1331-1.1296c0.7539-0.0546 1.5627-0.0546 2.3188 0l-1.1857 1.1296zm-4.26-0.431 2.371 2.364-4.7976 4.784-2.9654-2.957c1.3479-1.879 3.235-3.33 5.392-4.191v0.0001zm13.966 4.1934-2.9653 2.9564-4.7977-4.7832 2.3715-2.3643c2.1018 0.8588 3.9888 2.3097 5.3915 4.1911zv0 0 0zm-14.503 4.893 4.7974 4.783 4.798-4.783-4.798-4.783-4.7974 4.783zm-7.1186 3.2246 3.2897-3.2798-2.4262-2.4189c-0.59393 1.4509-0.86351 2.9565-0.86351 4.462v1.2367zm23.83 0.0007v-1.2368c0-1.5055-0.3223-3.011-0.8635-4.4619l-2.4262 2.4189 3.2897 3.2798zm-13.856 3.438-4.7973-4.783-4.7976 4.783 4.7976 4.783 4.7973-4.783zm8.6813 4.7833-4.7976-4.7832 4.7976-4.7832 4.7976 4.7832-4.7976 4.7832zm-6.7394-2.9021 4.7976 4.7831-4.7976 4.7832-4.7976-4.7832 4.7976-4.7831zm-11.052 7.202c-0.5939-1.398-0.8635-2.902-0.8635-4.462v-1.2368l3.2897 3.2798-2.4262 2.4189zm22.967-4.4073v-1.2368l-3.2897 3.2798 2.4262 2.4189c0.5939-1.4509 0.8635-2.9564 0.8635-4.4619zm-18.654 3.925-2.9654 2.956c1.4006 1.8813 3.2876 3.3868 5.3916 4.191l2.371-2.364-4.7974-4.783zm8.6268 4.7853 2.3714 2.3643c2.1566-0.8063 4.0436-2.3118 5.3915-4.1911l-2.9653-2.9564-4.7976 4.7832zm-3.073 3.0635 1.1857-1.1821 1.1857 1.1821c-0.8087 0.1071-1.5627 0.1071-2.3714 0z" fill-rule="evenodd" fill-opacity=".031373" transform="matrix(.9113 .38682 -.38682 .9113 66.274 114.99)"/>
 </g>
 <g transform="translate(-48.275 -111.88)" clip-path="url(#clip_0-5)">
  <path d="m22.638 10.266c1.8323 1.2346 3.395 2.8472 4.528 4.7832l0.0005 0.0005c1.3479 2.2025 2.0471 4.783 2.0576 7.4728v9.2999c0 2.5805-0.7013 5.1064-2.0492 7.3636-1.8348 3.1184-4.7999 5.4302-8.2496 6.5053-1.4027 0.4304-2.858 0.6446-4.3132 0.6446-1.4553 0-2.9106-0.2142-4.3133-0.6446-3.4522-1.076-6.4175-3.388-8.2498-6.506-1.3479-2.258-2.0492-4.838-2.0492-7.419v-9.3c0-2.635 0.70133-5.161 2.0492-7.418 1.131-1.934 2.6958-3.601 4.528-4.783l-2.5883-5.1616c-0.2148-0.5375-0.1622-1.1275 0.2696-1.558 0.4296-0.4304 1.0235-0.5375 1.5626-0.2687l5.0669 2.5259 2.534-5.0519c0.215-0.48293 0.701-0.7517 1.186-0.7517 0.4844 0 0.9709 0.32124 1.1857 0.75169l2.5336 5.052 5.0672-2.526c0.5392-0.26876 1.131-0.16168 1.5627 0.26877 0.4318 0.42831 0.5392 1.0204 0.2696 1.558l-2.589 5.1615zm-8.035-5.8602 1.78 3.601c-1.1857-0.16168-2.4262-0.16168-3.6119 0l1.832-3.601zm-4.313 4.1386-2.0492-1.0205 0.7561 1.5034c0.4296-0.2142 0.8613-0.3213 1.2931-0.4829zm8.6813 0.00003c0.4296 0.15959 0.8614 0.32127 1.2931 0.48295l0.7561-1.5034-2.0492 1.0204zm-4.3681 3.2254-1.1331-1.1296c0.7539-0.0546 1.5627-0.0546 2.3188 0l-1.1857 1.1296zm-4.26-0.431 2.371 2.364-4.7976 4.784-2.9654-2.957c1.3479-1.879 3.235-3.33 5.392-4.191v0.0001zm13.966 4.1934-2.9653 2.9564-4.7977-4.7832 2.3715-2.3643c2.1018 0.8588 3.9888 2.3097 5.3915 4.1911zv0 0 0zm-14.503 4.893 4.7974 4.783 4.798-4.783-4.798-4.783-4.7974 4.783zm-7.1186 3.2246 3.2897-3.2798-2.4262-2.4189c-0.59393 1.4509-0.86351 2.9565-0.86351 4.462v1.2367zm23.83 0.0007v-1.2368c0-1.5055-0.3223-3.011-0.8635-4.4619l-2.4262 2.4189 3.2897 3.2798zm-13.856 3.438-4.7973-4.783-4.7976 4.783 4.7976 4.783 4.7973-4.783zm8.6813 4.7833-4.7976-4.7832 4.7976-4.7832 4.7976 4.7832-4.7976 4.7832zm-6.7394-2.9021 4.7976 4.7831-4.7976 4.7832-4.7976-4.7832 4.7976-4.7831zm-11.052 7.202c-0.5939-1.398-0.8635-2.902-0.8635-4.462v-1.2368l3.2897 3.2798-2.4262 2.4189zm22.967-4.4073v-1.2368l-3.2897 3.2798 2.4262 2.4189c0.5939-1.4509 0.8635-2.9564 0.8635-4.4619zm-18.654 3.925-2.9654 2.956c1.4006 1.8813 3.2876 3.3868 5.3916 4.191l2.371-2.364-4.7974-4.783zm8.6268 4.7853 2.3714 2.3643c2.1566-0.8063 4.0436-2.3118 5.3915-4.1911l-2.9653-2.9564-4.7976 4.7832zm-3.073 3.0635 1.1857-1.1821 1.1857 1.1821c-0.8087 0.1071-1.5627 0.1071-2.3714 0z" fill-rule="evenodd" fill-opacity=".031373" transform="matrix(.9113 .38682 -.38682 .9113 66.274 114.99)"/>
 </g>
</svg>
