<?xml version="1.0" encoding="utf-8" ?>
<svg xmlns="http://www.w3.org/2000/svg" xmlns:xlink="http://www.w3.org/1999/xlink" width="12" height="12">
	<defs>
		<clipPath id="clip_0">
			<rect x="-432.89999" y="-2221.105" width="1368" height="3152.0999" clip-rule="evenodd"/>
		</clipPath>
	</defs>
	<g clip-path="url(#clip_0)">
		<path fill="rgb(204,145,49)" stroke="none" transform="matrix(0.95 0 0 0.95 0.300018 -0.00512695)" d="M9.51724 1.24179L11.5862 1.24179C11.8141 1.24179 12 1.42773 12 1.65572L12 11.1761C12 11.4041 11.8141 11.59 11.5862 11.59L0.413793 11.59C0.185884 11.59 0 11.4041 0 11.1761L0 1.65572C0 1.42773 0.185876 1.24179 0.413793 1.24179L2.48276 1.24179L2.48276 0.41393C2.48276 0.185945 2.66863 0 2.89655 0L4.34483 0C4.57274 0 4.75862 0.185937 4.75862 0.41393L4.75862 1.24179L7.24138 1.24179L7.24138 0.41393C7.24138 0.185945 7.42725 0 7.65517 0L9.10345 0C9.33136 0 9.51724 0.185937 9.51724 0.41393L9.51724 1.24179ZM3.31034 0.827859L3.93103 0.827859L3.93103 2.48358L3.31034 2.48358L3.31034 0.827859ZM8.68966 0.827859L8.06897 0.827859L8.06897 2.48358L8.68966 2.48358L8.68966 0.827859ZM0.827586 4.96715L0.827586 10.7622L11.1724 10.7622L11.1724 4.96715L0.827586 4.96715Z" fill-rule="evenodd"/>
	</g>
</svg>
