<?xml version="1.0" encoding="utf-8" ?>
<svg xmlns="http://www.w3.org/2000/svg" xmlns:xlink="http://www.w3.org/1999/xlink" width="14" height="9">
	<defs>
		<clipPath id="clip_0">
			<rect x="-561.58002" y="-3033.4199" width="1382.4" height="3185.28" clip-rule="evenodd"/>
		</clipPath>
	</defs>
	<g clip-path="url(#clip_0)">
		<path fill="rgb(195,121,0)" fill-opacity="0.78431374" stroke="none" transform="matrix(0.96 0 0 0.96 0.0200195 0.179932)" d="M6.0555 3.98625C5.8665 3.885 0.796501 1.161 0.430501 0.9645C0.0645006 0.76725 -0.281999 0 0.390751 0L13.08 0C13.7528 0 13.4063 0.76725 13.0395 0.9645C12.6735 1.161 7.6035 3.885 7.4145 3.98625C7.2255 4.0875 6.981 4.1355 6.735 4.1355C6.489 4.1355 6.2445 4.0875 6.0555 3.98625ZM7.4145 5.637C7.6695 5.5035 12.7935 2.8335 13.2098 2.61675C13.5001 2.46528 13.5 2.63945 13.5 2.77685L13.5 2.781L13.5 8.25C13.5 8.565 13.0755 9 12.75 9L0.750001 9C0.424501 9 0 8.565 0 8.25L0 2.77609C-3.04395e-05 2.63869 -6.8251e-05 2.46453 0.289501 2.616C0.705751 2.83275 5.8005 5.5035 6.0555 5.637C6.3105 5.7705 6.489 5.78625 6.735 5.78625C6.981 5.78625 7.1595 5.7705 7.4145 5.637Z" fill-rule="evenodd"/>
	</g>
</svg>
