<?xml version="1.0" encoding="UTF-8" standalone="no"?>
<svg xmlns:rdf="http://www.w3.org/1999/02/22-rdf-syntax-ns#" xmlns="http://www.w3.org/2000/svg" height="15.031" width="9.4" version="1.1" xmlns:cc="http://creativecommons.org/ns#" xmlns:dc="http://purl.org/dc/elements/1.1/">
 <metadata>
  <rdf:RDF>
   <cc:Work rdf:about="">
    <dc:format>image/svg+xml</dc:format>
    <dc:type rdf:resource="http://purl.org/dc/dcmitype/StillImage"/>
    <dc:title/>
   </cc:Work>
  </rdf:RDF>
 </metadata>
 <defs>
  <clipPath id="clip_0">
   <rect height="3118.9" width="1353.6" clip-rule="evenodd" y="-2824.7" x="-552.42"/>
  </clipPath>
 </defs>
 <g transform="translate(-.29999 .015137)" clip-path="url(#clip_0)">
  <path d="m0 4.99c0-2.761 2.238-4.99 5-4.99s5 2.23 5 4.99c0 4.773-5 11-5 11s-5-6.226-5-11zm2.3 0.061c0 1.491 1.208 2.7 2.7 2.7 1.49 0 2.699-1.209 2.699-2.7s-1.209-2.7-2.699-2.7c-1.492 0-2.7 1.209-2.7 2.7z" fill-rule="evenodd" transform="matrix(.94 0 0 .94 .29999 -.015137)" fill="#cc9131"/>
 </g>
</svg>
