<?xml version="1.0" encoding="UTF-8" standalone="no"?>
<svg xmlns:rdf="http://www.w3.org/1999/02/22-rdf-syntax-ns#" xmlns="http://www.w3.org/2000/svg" height="44.16" width="44.16" version="1.1" xmlns:cc="http://creativecommons.org/ns#" xmlns:dc="http://purl.org/dc/elements/1.1/">
 <metadata>
  <rdf:RDF>
   <cc:Work rdf:about="">
    <dc:format>image/svg+xml</dc:format>
    <dc:type rdf:resource="http://purl.org/dc/dcmitype/StillImage"/>
    <dc:title/>
   </cc:Work>
  </rdf:RDF>
 </metadata>
 <defs>
  <clipPath id="clip_0">
   <rect height="3318" width="1440" clip-rule="evenodd" y="-1657" x="-325"/>
  </clipPath>
 </defs>
 <g transform="translate(1,1)" clip-path="url(#clip_0)">
  <path d="m0 22.08c0-12.176 9.9043-22.08 22.08-22.08v0.0000598c12.176 0 22.08 9.9042 22.08 22.08 0 3.1464-0.6487 6.185-1.928 9.033-0.4151 0.929-1.5041 1.344-2.4312 0.9254-0.9272-0.4151-1.3423-1.504-0.9254-2.4312 1.0637-2.3718 1.6046-4.9053 1.6046-7.5269 0-10.147-8.2547-18.4-18.4-18.4-10.147 0-18.4 8.2528-18.4 18.4 0 2.6233 0.53907 5.1569 1.6046 7.5287 0.4151 0.9272 0.00179 2.0161-0.92539 2.4312-0.24435 0.1114-0.50131 0.1635-0.75288 0.1635-0.70256 0-1.3746-0.4061-1.6801-1.0871-1.2812-2.851-1.928-5.889-1.928-9.037zm32.2-2.3c0 2.6344-0.6397 5.3314-1.8616 7.5775h0.0001c4.4977 1.7015 8.3016 4.6771 8.3016 8.5224 0 0.4672-0.176 0.9164-0.4941 1.256-4.226 4.528-9.931 7.024-16.066 7.024-6.134 0-11.84-2.496-16.066-7.024-0.318-0.342-0.4941-0.789-0.4941-1.256 0-3.8451 3.8023-6.8208 8.3016-8.5224-1.2237-2.2462-1.8615-4.9433-1.8615-7.5775 0-6.3967 4.255-11.04 10.12-11.04 5.8632 0 10.12 4.6433 10.12 11.04zm-3.68 0.0018c0-3.5452-2.0161-7.3599-6.44-7.3599-4.4257 0-6.44 3.8147-6.44 7.3599 0 3.8203 1.9982 9.2 6.44 9.2 4.4419 0 6.44-5.3798 6.44-9.2zm-6.44 20.698c-4.8208 0-9.3256-1.8561-12.779-5.2448 0.56244-1.84 3.4284-3.7268 6.8964-4.8263 1.5579 1.3871 3.52 2.2532 5.8829 2.2532 2.3611 0 4.3251-0.8661 5.8811-2.2532 3.4698 1.1014 6.3342 2.9864 6.8982 4.8263-3.4536 3.3888-7.9585 5.2448-12.779 5.2448z" fill-rule="evenodd" transform="translate(-1,-1)" fill="#fff"/>
 </g>
</svg>
