<?xml version="1.0" encoding="utf-8" ?>
<svg xmlns="http://www.w3.org/2000/svg" xmlns:xlink="http://www.w3.org/1999/xlink" width="20" height="20">
	<defs>
		<clipPath id="clip_0">
			<rect x="-964.26392" y="-2963.074" width="1425.6" height="3284.8198" clip-rule="evenodd"/>
		</clipPath>
	</defs>
	<g clip-path="url(#clip_0)">
		<path fill="rgb(204,145,49)" stroke="none" transform="matrix(0.99 0 0 0.99 5.44196 5.44189)" d="M7.99683 1.15021C7.82861 0.71417 7.48396 0.36952 7.04792 0.2013C6.75061 0.0911158 6.43656 0.0328739 6.11951 0.02912C5.59222 0.00506 5.43414 0 4.09906 0C2.76398 0 2.6059 0.00506 2.07861 0.02911C1.76156 0.0328639 1.44751 0.0911058 1.1502 0.20129C0.71416 0.36951 0.36951 0.71416 0.20129 1.1502C0.0911058 1.44751 0.0328639 1.76156 0.02911 2.07861C0.00506 2.6059 0 2.76406 0 4.09906C0 5.43406 0.00507 5.59222 0.02911 6.11951C0.0328568 6.43656 0.0910989 6.75061 0.20129 7.04792C0.36951 7.48396 0.71416 7.82861 1.1502 7.99683C1.44751 8.10701 1.76156 8.16526 2.07861 8.16901C2.60577 8.19301 2.76391 8.19812 4.09906 8.19812C5.43421 8.19812 5.59235 8.19305 6.11951 8.16901C6.43656 8.16526 6.75061 8.10701 7.04792 7.99683C7.48396 7.82861 7.82861 7.48396 7.99683 7.04792C8.10702 6.75061 8.16526 6.43656 8.16901 6.11951C8.19301 5.59223 8.19812 5.43415 8.19812 4.09906C8.19812 2.76397 8.19306 2.6059 8.16901 2.07861C8.16526 1.76156 8.10701 1.44752 7.99683 1.15021ZM6.16806 1.43006C6.16806 1.76143 6.43669 2.03006 6.76806 2.03006C7.09943 2.03006 7.36806 1.76143 7.36806 1.43006C7.36806 1.09869 7.09943 0.83006 6.76806 0.83006C6.43669 0.83006 6.16806 1.09869 6.16806 1.43006ZM4.09906 6.66663C2.68103 6.66663 1.53149 5.51709 1.53149 4.09906C1.53149 2.68103 2.68103 1.53149 4.09906 1.53149C5.51709 1.53149 6.66663 2.68103 6.66663 4.09906C6.66663 4.78002 6.39612 5.4331 5.91461 5.91461C5.4331 6.39612 4.78002 6.66663 4.09906 6.66663Z" fill-rule="evenodd"/>
	</g>
	<defs>
		<clipPath id="clip_1">
			<rect x="-964.26392" y="-2963.074" width="1425.6" height="3284.8198" clip-rule="evenodd"/>
		</clipPath>
	</defs>
	<g clip-path="url(#clip_1)">
		<path fill="rgb(204,145,49)" stroke="none" transform="matrix(0.99 0 0 0.99 7.84998 7.84985)" d="M1.66669 3.33338C2.58718 3.33338 3.33338 2.58718 3.33338 1.66669C3.33338 0.746203 2.58718 0 1.66669 0C0.746203 0 0 0.746203 0 1.66669C0 2.58718 0.746203 3.33338 1.66669 3.33338Z"/>
	</g>
	<defs>
		<clipPath id="clip_2">
			<rect x="-964.26392" y="-2963.074" width="1425.6" height="3284.8198" clip-rule="evenodd"/>
		</clipPath>
	</defs>
	<g clip-path="url(#clip_2)">
		<path fill="rgb(204,145,49)" stroke="none" transform="matrix(0.99 0 0 0.99 -0.00396729 -0.00415039)" d="M0 9.6C0 4.29807 4.29807 0 9.6 0C12.1461 -1.32609e-05 14.5879 1.01141 16.3882 2.81176C18.1886 4.61211 19.2 7.05392 19.2 9.6C19.2 14.9019 14.9019 19.2 9.6 19.2C4.29807 19.2 0 14.9019 0 9.6ZM14.3375 12.8752C14.483 12.4867 14.5616 12.0763 14.5699 11.6615C14.5943 11.1282 14.6 10.9579 14.6 9.6C14.6 8.24209 14.5943 8.0718 14.5699 7.53847C14.5616 7.12368 14.483 6.71331 14.3375 6.32479C14.0778 5.65315 13.5468 5.1222 12.8752 4.86251C12.4867 4.717 12.0763 4.63841 11.6615 4.63009C11.1282 4.60574 10.9579 4.6 9.6 4.6C8.24209 4.6 8.0718 4.60574 7.53847 4.63009C7.12368 4.63841 6.71331 4.717 6.32479 4.86251C5.65315 5.12221 5.1222 5.65316 4.86251 6.3248C4.717 6.71332 4.63841 7.12369 4.63009 7.53848C4.60574 8.0718 4.6 8.24209 4.6 9.6C4.6 10.9579 4.60574 11.1282 4.6301 11.6615C4.63842 12.0763 4.71701 12.4867 4.86252 12.8752C5.12221 13.5469 5.65316 14.0778 6.3248 14.3375C6.71332 14.483 7.12369 14.5616 7.53848 14.5699C8.0718 14.5943 8.24209 14.6 9.6 14.6C10.9579 14.6 11.1282 14.5943 11.6615 14.5699C12.0763 14.5616 12.4867 14.483 12.8752 14.3375C13.5469 14.0778 14.0778 13.5468 14.3375 12.8752Z" fill-rule="evenodd"/>
	</g>
</svg>
